<?xml version="1.0" encoding="UTF-8"?>
<svg version="1.1" xmlns="http://www.w3.org/2000/svg" width="512" height="512">
<path d="M0 0 C30.40811802 1.30004527 60.74779116 1.85087362 91.18209577 1.81607533 C97.23935919 1.81084519 103.29661803 1.81575198 109.35388184 1.81884766 C119.50575375 1.82243941 129.65759612 1.81781669 139.8094635 1.8081665 C151.38331742 1.79728849 162.95710077 1.80082265 174.53095299 1.81181931 C184.64570784 1.82102818 194.76044203 1.82211263 204.87519974 1.81694198 C210.83857014 1.81389577 216.80190793 1.81320039 222.76527596 1.82001495 C252.71777276 1.84966555 282.5742762 1.19508891 312.49845678 -0.1162374 C350.58772463 -1.75523541 350.58772463 -1.75523541 362.68275452 3.54742432 C363.75267639 3.8606665 364.82259827 4.17390869 365.92494202 4.49664307 C369.12656445 6.87745295 369.20373359 7.45711304 369.85462952 11.23492432 C370.08105033 13.3357307 370.27029577 15.44070625 370.43275452 17.54742432 C370.5414386 18.74488281 370.65012268 19.94234131 370.76210022 21.17608643 C371.05069808 24.57728139 371.30521674 27.97715258 371.53559875 31.38256836 C371.68196894 33.53586738 371.83796919 35.68831932 371.99476624 37.84088135 C375.20622305 83.23079262 375.05785128 129.54329632 372.80775452 174.98492432 C372.76863953 175.78109161 372.72952454 176.57725891 372.68922424 177.39755249 C372.46694098 181.71751237 372.18061421 186.02754852 371.83863831 190.33959961 C371.66612455 192.78295915 371.55823377 195.22601701 371.44740295 197.6729126 C371.33753769 199.39291709 371.225922 201.11281078 371.11244202 202.83258057 C371.07656479 204.02783607 371.07656479 204.02783607 371.03996277 205.24723816 C370.77520402 208.62807527 370.54051827 210.74229263 368.00517273 213.12207031 C358.0005608 219.58675275 346.68562751 221.26807057 335.05775452 222.42242432 C333.59109364 222.57732825 332.12454474 222.73329528 330.65809631 222.89019775 C327.30655366 223.24616683 323.9541845 223.59289685 320.60121155 223.93511963 C315.02974401 224.50680335 309.46193597 225.11018599 303.89411926 225.71627808 C298.72230379 226.27797806 293.54958841 226.83106939 288.37666321 227.38244629 C285.81192438 227.6566535 283.24742407 227.93310193 280.68318176 228.21191406 C232.88964983 233.38739706 232.88964983 233.38739706 215.01869202 219.47320557 C205.56407631 211.28967868 199.30546842 201.58614788 193.13392639 190.83258057 C189.05352165 183.85138876 184.9423289 177.38701269 177.80775452 173.23492432 C177.02658264 172.7644165 176.24541077 172.29390869 175.44056702 171.80914307 C168.65098851 168.70286282 162.16414398 168.18596099 154.80775452 168.23492432 C153.48167175 168.24338379 153.48167175 168.24338379 152.12879944 168.25201416 C141.98674526 168.44109537 133.39641879 170.58597908 125.68275452 177.54742432 C120.88045761 183.21520695 117.16905098 189.56476405 113.37025452 195.92242432 C103.62305015 211.90639873 92.20447196 224.72825325 73.49525452 229.85992432 C60.22409533 232.20014068 46.14667119 230.12275596 32.87025452 228.71929932 C31.00335053 228.52671758 29.13640625 228.33452601 27.26942444 228.1427002 C23.3828361 227.74132834 19.49695902 227.33376576 15.61146545 226.92193604 C10.6779449 226.39974392 5.74277489 225.89554307 0.80688477 225.39631271 C-3.04114496 225.00464438 -6.88798198 224.60210049 -10.73457336 224.19657135 C-12.5519275 224.00646822 -14.3696514 223.81986061 -16.1877594 223.63710785 C-51.82989636 220.03477344 -51.82989636 220.03477344 -60.31724548 211.54742432 C-60.70369922 208.45293882 -61.02897866 205.37472938 -61.30943298 202.27008057 C-61.39659576 201.3227858 -61.48375854 200.37549103 -61.57356262 199.39949036 C-62.44560287 189.60514796 -63.0193915 179.80800533 -63.44224548 169.98492432 C-63.4839386 169.02865143 -63.52563171 168.07237854 -63.56858826 167.08712769 C-65.81313672 113.86892695 -66.15955241 59.46903471 -59.31724548 6.54742432 C-39.67840783 -2.15879475 -21.09127601 -0.90435411 0 0 Z " fill="#000000" transform="translate(101.31724548339844,220.45257568359375)"/>
<path d="M0 0 C1.07128647 -0.00953201 2.14257294 -0.01906403 3.24632263 -0.02888489 C4.40777298 -0.02797348 5.56922333 -0.02706207 6.76586914 -0.02612305 C7.95451065 -0.03040817 9.14315216 -0.0346933 10.36781311 -0.03910828 C12.88550173 -0.04485998 15.40320697 -0.04534569 17.92089844 -0.04101562 C21.78161879 -0.03785767 25.64157187 -0.06129862 29.50219727 -0.08666992 C31.94425359 -0.08894294 34.38631198 -0.0896464 36.82836914 -0.08862305 C37.98779526 -0.09783279 39.14722137 -0.10704254 40.34178162 -0.11653137 C41.95343956 -0.10718819 41.95343956 -0.10718819 43.59765625 -0.09765625 C44.5442662 -0.09828568 45.49087616 -0.0989151 46.46617126 -0.0995636 C49.38776239 0.35649047 50.08382119 0.95208019 51.86352539 3.2746582 C52.2382555 5.57476902 52.2382555 5.57476902 52.23774719 8.32948303 C52.24826866 9.8963662 52.24826866 9.8963662 52.25900269 11.49490356 C52.25135895 12.64046722 52.24371521 13.78603088 52.23583984 14.96630859 C52.23949051 16.17297684 52.24314117 17.37964508 52.24690247 18.62287903 C52.25362589 21.9328527 52.24688573 25.24226558 52.23357034 28.55218434 C52.22226203 32.01325992 52.2263628 35.47432081 52.22831726 38.93540955 C52.22920032 44.7468652 52.21811651 50.55820423 52.19970703 56.36962891 C52.17852922 63.09355648 52.17503154 69.81731329 52.18126899 76.54126745 C52.18695821 83.00458477 52.18132288 89.46784181 52.17009544 95.93115044 C52.16544458 98.68431142 52.16457769 101.43743559 52.16668129 104.19059944 C52.16890993 108.03126542 52.15447454 111.87176807 52.13818359 115.71240234 C52.14066101 116.85999023 52.14313843 118.00757813 52.14569092 119.18994141 C52.13506371 120.75259483 52.13506371 120.75259483 52.1242218 122.34681702 C52.12216893 123.25549562 52.12011606 124.16417421 52.11800098 125.10038853 C51.86352539 127.2746582 51.86352539 127.2746582 49.86352539 129.2746582 C47.49703979 129.51516724 47.49703979 129.51516724 44.49584961 129.50170898 C42.81433304 129.50148239 42.81433304 129.50148239 41.09884644 129.50125122 C39.88423737 129.49092865 38.6696283 129.48060608 37.41821289 129.4699707 C36.17806427 129.46714081 34.93791565 129.46431091 33.66018677 129.46139526 C30.36227907 129.45207995 27.06456567 129.4341071 23.76672363 129.4119873 C20.40187969 129.39153294 17.03700733 129.38239444 13.67211914 129.37231445 C7.06917816 129.35022339 0.46636768 129.31672303 -6.13647461 129.2746582 C-7.38482112 126.77796518 -7.26508261 125.09645666 -7.27018738 122.30212402 C-7.27445236 121.25049576 -7.27871735 120.19886749 -7.28311157 119.1153717 C-7.28265839 117.95686203 -7.2822052 116.79835236 -7.28173828 115.60473633 C-7.28509689 114.38846054 -7.28845551 113.17218475 -7.29191589 111.91905212 C-7.2998032 108.57821469 -7.30309431 105.23743939 -7.30373168 101.89659691 C-7.30468004 99.11062934 -7.30835739 96.32466776 -7.31190377 93.53870249 C-7.32005098 86.96842553 -7.32248772 80.39816228 -7.32177734 73.82788086 C-7.32117611 67.04207299 -7.33173634 60.25634451 -7.34752101 53.47055674 C-7.36057845 47.65057198 -7.36596202 41.83061322 -7.36532193 36.01061392 C-7.36506646 32.53187363 -7.36794461 29.0532039 -7.37849998 25.57447815 C-7.3899415 21.6978136 -7.3854452 17.8212588 -7.37939453 13.94458008 C-7.38501404 12.7860704 -7.39063354 11.62756073 -7.39642334 10.4339447 C-7.39222885 9.38231644 -7.38803436 8.33068817 -7.38371277 7.24719238 C-7.38425754 6.32984062 -7.3848023 5.41248886 -7.38536358 4.46733856 C-6.85634018 -0.19329072 -3.96706401 0.01932495 0 0 Z " fill="#000000" transform="translate(229.136474609375,60.725341796875)"/>
<path d="M0 0 C0 17.82 0 35.64 0 54 C-3.71213402 55.23737801 -6.93960534 56.28270575 -10.6953125 57.04296875 C-28.24094355 60.72301823 -44.21824199 65.76743299 -60.1875 74 C-61.60373657 74.72908569 -61.60373657 74.72908569 -63.04858398 75.47290039 C-67.6591351 77.93341958 -71.74034836 80.50197896 -75.765625 83.84375 C-79.46450231 86.8149592 -81.69089801 87.82829087 -86.5625 87.5 C-87.83222656 87.43683594 -89.10195312 87.37367188 -90.41015625 87.30859375 C-91.12187988 87.25815918 -91.83360352 87.20772461 -92.56689453 87.15576172 C-95.39683526 86.97459554 -98.22436654 86.87712232 -101.05859375 86.78515625 C-118.95864304 86.17685601 -118.95864304 86.17685601 -126 85 C-123.49813663 64.29378867 -114.79863318 47.27634288 -98.484375 34.08203125 C-71.91711653 13.5077048 -33.56931867 0 0 0 Z " fill="#000000" transform="translate(215,128)"/>
<path d="M0 0 C37.93757202 2.91827477 78.25445074 14.77975373 106 42 C106.69738281 42.67289063 107.39476562 43.34578125 108.11328125 44.0390625 C119.11402438 55.44565829 125.27043178 70.19664282 125 86 C119.04681681 86.34726902 113.09501159 86.62636355 107.13623047 86.85791016 C104.00457009 86.99979295 100.88165062 87.20808257 97.75390625 87.41796875 C84.63602299 88.10273876 77.53069234 86.96645681 67.67919922 78.33398438 C62.49805052 74.21799186 55.99833785 71.70082228 50 69 C48.82050781 68.46632813 47.64101563 67.93265625 46.42578125 67.3828125 C31.54206717 61.06255548 15.70683124 57.62465336 0 54 C0 36.18 0 18.36 0 0 Z " fill="#000000" transform="translate(288,128)"/>
<path d="M0 0 C-0.14447372 2.62778848 -0.28934177 5.25555397 -0.43457031 7.88330078 C-0.47953266 8.69802416 -0.52449501 9.51274754 -0.57081985 10.3521595 C-0.83406928 15.09622589 -1.10876095 19.83937293 -1.39653397 24.58201027 C-2.82099727 48.23414892 -3.31894883 71.81448186 -3.26074219 95.50732422 C-3.24933229 100.19312359 -3.25613746 104.87869577 -3.26764679 109.56448746 C-3.31240344 131.25686925 -2.79701445 152.82200167 -1.42871094 174.47216797 C-1.06402892 180.3324029 -0.90916851 186.12983446 -1 192 C-8.0429887 189.6523371 -12.34269436 180.8301148 -15.75 174.625 C-31.54544831 142.56797936 -28.9436063 93.01664993 -26 58 C-25.91234375 56.95360352 -25.8246875 55.90720703 -25.734375 54.82910156 C-23.75427755 32.67676131 -18.99195792 17.11989358 -3 1 C-1 0 -1 0 0 0 Z " fill="#000000" transform="translate(34,233)"/>
<path d="M0 0 C1.28676399 0.94231105 2.57043088 1.88885224 3.8527832 2.8371582 C4.56795609 3.36380569 5.28312897 3.89045319 6.01997375 4.43305969 C17.62899435 13.620131 22.85717783 30.1599784 24.5546875 44.29370117 C26.11911421 58.84388481 26.35602201 73.31385464 26.3125 87.9375 C26.31134186 89.14456604 26.31018372 90.35163208 26.30899048 91.59527588 C26.27425623 109.91766796 25.68024475 127.85704759 23 146 C22.82380127 147.30590088 22.82380127 147.30590088 22.64404297 148.63818359 C20.72496192 162.75334598 16.88100414 174.72092151 8 186 C7.26330078 186.96486328 7.26330078 186.96486328 6.51171875 187.94921875 C5.40376568 189.35131865 4.21066342 190.68556543 3 192 C2.34 192 1.68 192 1 192 C0.88261079 185.31126082 1.02898187 178.66498157 1.4375 171.98828125 C4.34462728 123.36529434 4.26860486 74.20421959 1.27001953 25.58789062 C0.7530432 17.06380893 0.39153799 8.53057476 0 0 Z " fill="#000000" transform="translate(478,233)"/>
</svg>
